<?xml version="1.0" encoding="UTF-8" standalone="no"?>
<svg
   xmlns:dc="http://purl.org/dc/elements/1.1/"
   xmlns:cc="http://creativecommons.org/ns#"
   xmlns:rdf="http://www.w3.org/1999/02/22-rdf-syntax-ns#"
   xmlns:svg="http://www.w3.org/2000/svg"
   xmlns="http://www.w3.org/2000/svg"
   xmlns:sodipodi="http://sodipodi.sourceforge.net/DTD/sodipodi-0.dtd"
   xmlns:inkscape="http://www.inkscape.org/namespaces/inkscape"
   inkscape:version="1.0 (4035a4fb49, 2020-05-01)"
   height="80"
   width="251.72359"
   sodipodi:docname="logo-gardoon-horizontal.svg"
   version="1.1"
   viewBox="0 0 251.72358 79.999997"
   data-name="Layer 1"
   id="Layer_1">
  <metadata
     id="metadata23">
    <rdf:RDF>
      <cc:Work
         rdf:about="">
        <dc:format>image/svg+xml</dc:format>
        <dc:type
           rdf:resource="http://purl.org/dc/dcmitype/StillImage" />
        <dc:title></dc:title>
      </cc:Work>
    </rdf:RDF>
  </metadata>
  <sodipodi:namedview
     inkscape:current-layer="Layer_1"
     inkscape:window-maximized="1"
     inkscape:window-y="-6"
     inkscape:window-x="-6"
     inkscape:cy="-75.217593"
     inkscape:cx="288.69483"
     inkscape:zoom="1.0545408"
     fit-margin-bottom="0"
     fit-margin-right="0"
     fit-margin-left="0"
     fit-margin-top="0"
     showgrid="false"
     id="namedview21"
     inkscape:window-height="850"
     inkscape:window-width="1368"
     inkscape:pageshadow="2"
     inkscape:pageopacity="0"
     guidetolerance="10"
     gridtolerance="10"
     objecttolerance="10"
     borderopacity="1"
     bordercolor="#666666"
     pagecolor="#ffffff" />
  <defs
     id="defs4">
    <style
       id="style2">.cls-1{fill:#1f9b90;fill-rule:evenodd;}.cls-2{fill:#524947;}</style>
  </defs>
  <path
     style="stroke-width:0.171725"
     d="m 211.71159,0 c -22.09247,0 -40.01201,17.910953 -40.01201,40.012005 a 39.816238,39.816238 0 0 0 5.95716,21.010596 q 17.59154,-9.747131 33.0846,-15.49993 11.77521,-4.492335 20.16056,-7.087105 4.79113,-1.397844 11.87824,-3.293692 4.69154,-1.097325 6.98579,-1.597045 -4.59022,9.582274 -5.28914,10.475246 -4.1901,6.288582 -9.88108,8.084829 l -28.0479,8.383631 q -14.58635,4.377279 -23.27222,7.645212 a 39.884928,39.884928 0 0 0 28.436,11.866222 c 22.09418,0 40.012,-17.909237 40.012,-40.001702 C 251.72359,17.905802 233.80577,0 211.71159,0 Z m 32.04051,29.912838 q -2.23242,3.353796 -5.27196,4.31374 l -14.96758,4.464859 q -9.05508,2.718412 -13.84794,4.636584 -4.2605,1.650281 -6.86901,2.716695 0.1597,-1.492293 1.3738,-3.195808 1.2141,-1.703516 3.47572,-3.621688 9.63895,-5.37672 18.10844,-8.519294 6.28171,-2.404155 10.75859,-3.777958 2.55528,-0.745288 6.33839,-1.75675 2.50203,-0.583866 3.72815,-0.858627 -2.45567,5.117416 -2.8266,5.598247 z"
     class="cls-1"
     id="logo" />
  <path
     style="stroke-width:0.171725"
     d="m 23.124535,50.877068 -1.330872,-1.346327 1.327437,-1.286223 1.32572,1.286223 z m -11.938346,2.673763 q 0,-4.121408 -0.08243,-5.347527 l -0.472245,-0.190615 -1.4699689,1.30683 q 0.2026359,2.591335 0.4499204,6.73335 0.2472845,4.142016 0.3262781,6.388183 l 0.4894174,0.06182 0.592452,-1.878675 q 0.166574,-1.964538 0.166574,-7.073367 z m 5.754516,0.142532 -1.329154,-1.286223 -1.327437,1.286223 1.327437,1.346327 z M 5.8386617,56.714012 H 5.3492445 L 4.147167,57.979628 q 0.6336666,1.284505 1.3171334,3.080752 0.6834669,1.796248 0.7847849,2.428197 -0.3863821,0.515176 -1.3978443,1.050959 A 11.301245,11.301245 0 0 1 2.5604249,65.437659 10.344735,10.344735 0 0 1 0.14253204,65.836062 L 0,66.304872 a 15.757518,15.757518 0 0 0 2.2444502,1.143691 6.010387,6.010387 0 0 0 1.7447295,-0.480831 7.4460109,7.4460109 0 0 0 1.9902968,-1.183187 Q 6.8758828,65.039257 7.0802359,64.141133 A 4.4648589,4.4648589 0 0 0 7.1626641,63.162299 17.34426,17.34426 0 0 0 6.7745648,59.825675 14.033395,14.033395 0 0 0 5.8386617,56.714012 Z m 98.5548883,-4.713861 -1.20207,-1.202077 -1.26562,1.202077 1.26562,1.245009 z m 26.90936,-5.10196 -0.34345,-0.22496 -6.91881,2.979435 -0.20435,1.32572 7.34641,-3.202678 z M 92.99786,67.448563 q -0.592453,-0.264457 -2.122525,-1.143691 l 0.142532,-0.46881 a 9.893097,9.893097 0 0 0 2.388699,-0.377796 11.89198,11.89198 0 0 0 2.345768,-0.898123 q 1.04409,-0.540935 1.428755,-1.071566 a 9.6166192,9.6166192 0 0 0 0.02061,-1.408148 h -2.448803 q -1.674322,0 -2.404155,-0.652556 -0.729833,-0.652557 -0.724681,-1.959387 a 6.6165775,6.6165775 0 0 1 0.343451,-2.071007 4.2210089,4.2210089 0 0 1 1.009745,-1.703516 2.249602,2.249602 0 0 1 1.653715,-0.67488 q 1.30683,0.02061 2.203236,1.439058 0.896406,1.418452 1.202077,3.52037 h 0.817413 q 3.367533,0 4.183223,-0.551239 -0.24556,-0.734984 -0.65255,-1.703515 a 12.831318,12.831318 0 0 0 -0.81742,-1.643412 l 1.1437,-1.325719 h 0.51517 a 9.4053971,9.4053971 0 0 1 0.64225,1.907868 9.9343111,9.9343111 0 0 1 0.27648,2.316575 6.6320328,6.6320328 0 0 1 -0.22496,1.796247 q -0.4482,0.530632 -1.71725,0.917014 -1.24844,0.38123 -3.26278,0.388099 h -0.753875 a 9.3607485,9.3607485 0 0 1 -0.204353,2.060704 q -0.223243,0.899841 -1.153994,1.633108 a 8.1535193,8.1535193 0 0 1 -2.050401,1.183188 6.1821124,6.1821124 0 0 1 -1.779074,0.491134 z m 3.939379,-7.470052 Q 96.593789,58.510259 95.865673,57.775275 95.137558,57.04029 94.344187,57.04029 a 1.6296735,1.6296735 0 0 0 -1.183188,0.479114 2.1122217,2.1122217 0 0 0 -0.590735,1.296526 0.88782003,0.88782003 0 0 0 0.515176,0.908427 c 0.353754,0.171726 0.903275,0.254154 1.651998,0.254154 z m -52.37623,4.561025 a 11.28579,11.28579 0 0 1 -2.283947,0.898123 10.358473,10.358473 0 0 1 -2.41961,0.398403 l -0.142532,0.46881 a 15.757518,15.757518 0 0 0 2.24445,1.143691 6.010387,6.010387 0 0 0 1.74473,-0.480831 7.4460109,7.4460109 0 0 0 1.990297,-1.183187 c 0.599321,-0.496287 0.965096,-1.04409 1.102476,-1.643412 a 4.5988047,4.5988047 0 0 0 0.08071,-0.978834 11.952084,11.952084 0 0 0 -0.08071,-1.408148 2.8077094,2.8077094 0 0 0 1.346327,0.326278 h 0.183746 a 5.982911,5.982911 0 0 0 2.14485,-0.388099 q 0.999441,-0.386382 1.408148,-0.917014 a 6.1821124,6.1821124 0 0 0 0.223243,-1.755033 10.731117,10.731117 0 0 0 -0.94449,-4.265657 H 50.66928 l -1.138539,1.329154 a 18.70089,18.70089 0 0 1 0.815695,1.684626 c 0.286782,0.659425 0.503155,1.214098 0.654274,1.662301 -0.171726,0.171725 -0.530632,0.314257 -1.061263,0.408706 a 9.7883446,9.7883446 0 0 1 -1.717253,0.142532 h -0.06182 A 2.8763995,2.8763995 0 0 1 47.09911,59.839413 1.1436908,1.1436908 0 0 1 46.558175,59.298478 12.231996,12.231996 0 0 1 45.957136,57.799316 11.534791,11.534791 0 0 0 45.54843,56.717446 h -0.485983 l -1.202077,1.265616 q 0.630232,1.284506 1.315416,3.080753 0.685184,1.796247 0.786502,2.428196 -0.389816,0.50659 -1.401279,1.047525 z m 6.60284,-12.707676 -1.327437,-1.286222 -1.32572,1.286222 1.32572,1.346327 z m 50.425431,0.171726 -1.20208,-1.202078 -1.265614,1.202078 1.265614,1.245009 z m 26.06962,4.06989 a 16.442702,16.442702 0 0 0 -2.29425,-2.866096 l 6.06019,-2.447086 0.32628,-1.837461 a 0.30910562,0.30910562 0 0 0 -0.0206,-0.254153 0.22667745,0.22667745 0 0 0 -0.20435,-0.09273 0.65770807,0.65770807 0 0 0 -0.18375,0.04121 l -7.65208,3.34521 -0.40699,2.036662 q 4.26566,3.262782 4.38758,5.10196 -0.4482,0.489417 -1.79453,0.686902 a 18.001968,18.001968 0 0 1 -2.91933,0.183746 h -0.36062 a 5.3234857,5.3234857 0 0 1 -1.2244,-0.111622 c -0.2988,-0.07556 -0.48255,-0.171725 -0.55124,-0.276478 v -0.666294 q 0,-1.835744 0.0206,-3.041256 l 0.0206,-4.590218 q 0,-2.287382 -0.0601,-3.08247 l -0.47911,-0.190615 -1.46826,1.30683 q 0.10132,0.917013 0.20264,2.733867 0.10132,1.816854 0.14425,2.531232 0.0378,0.551238 0.18375,2.979434 0.14596,2.428197 0.26445,2.984587 a 1.7842263,1.7842263 0 0 0 0.85863,1.102477 q 0.6869,0.425878 2.04181,0.427596 h 0.34345 q 4.36698,0 5.46774,-1.530073 a 3.8140199,3.8140199 0 0 0 0.26617,-1.408148 q 0.002,-1.528355 -0.96853,-3.070449 z m -10.84617,3.072167 q -0.0206,1.509466 -0.81569,2.295968 -0.79509,0.786502 -2.26506,0.784785 -1.38754,0 -2.12253,-0.673164 -0.73498,-0.673163 -0.73498,-1.876958 a 5.0779184,5.0779184 0 0 1 0.18374,-1.286223 7.5421771,7.5421771 0 0 1 0.97884,-2.24445 l -0.40699,-0.163139 0.6869,-1.469969 0.53063,-0.223243 q 4.00464,1.58846 3.96514,4.852958 z m -0.87752,0.530631 q -0.26617,-1.815137 -3.06014,-3.163181 a 6.7883028,6.7883028 0 0 0 -0.63367,0.88782 3.0000418,3.0000418 0 0 0 -0.34345,1.009745 2.0435316,2.0435316 0 0 0 -0.0412,0.468811 1.0578281,1.0578281 0 0 0 0.55124,1.001158 q 0.55123,0.305671 1.77564,0.305671 a 3.7573505,3.7573505 0 0 0 1.20207,-0.152835 1.0303521,1.0303521 0 0 0 0.54952,-0.360623 z m 34.57003,-11.448928 -0.4087,-0.305672 -7.65208,3.346927 -0.40871,2.01949 a 15.642462,15.642462 0 0 1 1.70351,1.581591 17.627607,17.627607 0 0 1 1.83747,2.24445 q 0.8071,1.174601 0.85862,2.010904 -0.53063,0.46881 -1.71725,0.673163 a 10.990422,10.990422 0 0 1 -2.08131,0.183746 h -1.30683 a 5.3234857,5.3234857 0 0 1 -1.21753,-0.120207 c -0.29881,-0.07556 -0.48255,-0.171726 -0.55124,-0.276478 v -0.668012 q 0,-1.835744 0.0206,-3.041256 l 0.0206,-4.590218 q 0,-2.287382 -0.0618,-3.08247 l -0.45851,-0.190615 -1.46997,1.30683 q 0.10304,0.917013 0.20436,2.733867 0.10132,1.816854 0.14253,2.531232 0.0412,0.551238 0.18375,2.979434 0.14253,2.428197 0.26102,2.984587 a 1.7842263,1.7842263 0 0 0 0.85862,1.102477 c 0.45851,0.283346 1.14026,0.425878 2.0401,0.427596 h 0.18375 v 0 l 1.08187,-0.01717 a 11.215382,11.215382 0 0 0 2.61022,-0.310823 q 1.32744,-0.317692 1.95939,-1.202077 a 3.9805935,3.9805935 0 0 0 0.26617,-1.469969 q 0,-1.633108 -1.03035,-3.434507 a 16.398053,16.398053 0 0 0 -2.28395,-3.142574 l 6.0808,-2.46941 z m -16.22289,8.4901 h -0.49113 l -1.20208,1.265616 q 0.63366,1.284506 1.31713,3.080753 0.68347,1.796247 0.78479,2.428196 -0.38639,0.515176 -1.39785,1.050959 a 11.301245,11.301245 0 0 1 -2.28223,0.894689 10.330997,10.330997 0 0 1 -2.41789,0.398403 l -0.14253,0.46881 a 15.757518,15.757518 0 0 0 2.24445,1.143691 6.010387,6.010387 0 0 0 1.74473,-0.480831 7.4460109,7.4460109 0 0 0 1.99029,-1.183187 q 0.89641,-0.745288 1.10076,-1.643412 a 4.4648589,4.4648589 0 0 0 0.0824,-0.978834 17.213748,17.213748 0 0 0 -0.3881,-3.336624 14.134713,14.134713 0 0 0 -0.94277,-3.111663 z m -97.464436,5.03327 a 10.18503,10.18503 0 0 1 -2.776799,-1.602197 q 0.245567,2.93822 0.429313,8.469494 -0.448203,1.530073 -0.592452,1.856351 l -0.489417,-0.0395 Q 33.103494,66.373563 32.490435,60.272161 c -0.02748,-0.286781 0.159705,-0.697205 0.561542,-1.234705 a 5.4574314,5.4574314 0 0 1 1.255312,-1.255312 q 0.571846,0.406989 0.858627,0.590735 0.673163,-1.08187 1.08187,-1.641694 a 4.9611452,4.9611452 0 0 1 0.989138,-1.011463 2.0710076,2.0710076 0 0 1 1.296526,-0.448203 1.992014,1.992014 0 0 1 0.489417,0.06182 2.1603048,2.1603048 0 0 1 1.172884,0.66286 3.8775583,3.8775583 0 0 1 0.827716,1.373803 5.1654983,5.1654983 0 0 1 0.305671,1.77564 6.1975677,6.1975677 0 0 1 -0.121925,1.202077 l -1.373802,1.888979 a 3.4602657,3.4602657 0 0 1 -0.448203,0.02061 7.473487,7.473487 0 0 1 -2.567294,-0.50659 z M 36.16364,59.003111 a 7.3841898,7.3841898 0 0 0 2.010904,0.927317 6.261106,6.261106 0 0 0 2.132829,0.357188 q 0.03778,-1.306829 -0.398403,-2.172325 -0.436183,-0.865496 -1.275919,-1.030352 a 1.7172534,1.7172534 0 0 0 -0.285065,-0.04121 1.5455281,1.5455281 0 0 0 -1.081869,0.489417 7.2863063,7.2863063 0 0 0 -1.102477,1.469969 z M 26.086797,54.98989 a 9.743696,9.743696 0 0 1 0.458507,3.091056 14.210272,14.210272 0 0 1 -0.224961,2.386982 c -0.171725,0.231829 -0.563259,0.473962 -1.16258,0.724681 a 11.191341,11.191341 0 0 1 -2.285664,0.633666 16.866863,16.866863 0 0 1 -3.041256,0.254154 h -0.753875 a 2.8231646,2.8231646 0 0 1 -1.373802,-0.326278 11.952084,11.952084 0 0 1 0.08071,1.408148 4.5988047,4.5988047 0 0 1 -0.08071,0.978834 q -0.206071,0.899841 -1.102477,1.643412 a 7.4460109,7.4460109 0 0 1 -1.990297,1.183187 6.010387,6.010387 0 0 1 -1.744729,0.480831 15.757518,15.757518 0 0 1 -2.234147,-1.143691 l 0.142532,-0.46881 a 10.330997,10.330997 0 0 0 2.417893,-0.398403 11.301245,11.301245 0 0 0 2.285664,-0.898123 q 1.009745,-0.540935 1.397845,-1.050959 -0.0996,-0.631949 -0.784785,-2.428197 -0.685184,-1.796247 -1.313699,-3.087621 l 1.202077,-1.265616 h 0.491135 a 11.074567,11.074567 0 0 1 0.406989,1.08187 12.446653,12.446653 0 0 0 0.602756,1.499162 1.1436908,1.1436908 0 0 0 0.540935,0.540935 2.8712477,2.8712477 0 0 0 1.061262,0.142532 h 0.714378 a 21.379805,21.379805 0 0 0 3.858668,-0.28163 q 1.509466,-0.285064 1.835744,-0.633666 a 7.2485268,7.2485268 0 0 0 0.04121,-0.898124 q -0.920448,0.592453 -2.368092,0.592453 -1.406431,0 -2.172326,-0.755592 -0.765895,-0.755591 -0.765895,-2.162022 a 4.4373829,4.4373829 0 0 1 0.388099,-1.809985 3.7779576,3.7779576 0 0 1 1.040656,-1.418451 2.1912154,2.1912154 0 0 1 1.428755,-0.540935 2.4573897,2.4573897 0 0 1 1.765336,0.776198 q 0.784785,0.772764 1.23814,2.150002 z m -0.846606,1.274202 a 3.6062322,3.6062322 0 0 0 -1.030352,-1.651998 q -0.686901,-0.592453 -1.373803,-0.592453 a 1.6245218,1.6245218 0 0 0 -1.121366,0.468811 1.5918939,1.5918939 0 0 0 -0.551239,1.081869 1.1059112,1.1059112 0 0 0 0.601039,0.877517 2.7733643,2.7733643 0 0 0 1.373803,0.307388 q 1.433906,0 2.108787,-0.491134 z m 4.796289,-8.251403 -1.468252,1.30683 q 0.202636,2.591335 0.448203,6.73335 0.245568,4.142016 0.326278,6.388183 l 0.489418,0.06182 0.592452,-1.878675 q 0.161422,-1.978276 0.163139,-7.080236 0,-4.121408 -0.08071,-5.347527 z m 39.610168,13.806717 a 9.6767231,9.6767231 0 0 1 -2.040097,0.254154 h -0.592453 q -2.368092,0 -3.10136,-2.428196 a 12.575447,12.575447 0 0 1 -1.16258,1.102476 c -0.38123,0.02748 -0.647405,0.0395 -0.796806,0.0395 q -1.488859,0 -2.275361,-0.652556 -0.786502,-0.652556 -0.784784,-2.223843 a 6.261106,6.261106 0 0 1 0.0601,-0.858627 q 0.674881,-0.755592 3.142574,-2.24445 l 1.040656,-0.654274 -0.101318,-0.753874 1.373803,-1.30683 0.44992,0.163139 q 0,0.571845 0.171725,3.285106 l 0.08071,1.428755 a 10.303521,10.303521 0 0 0 0.214657,1.785943 1.5455281,1.5455281 0 0 0 0.551238,0.918731 q 0.396686,0.297085 1.172884,0.295367 h 0.408707 a 15.798732,15.798732 0 0 0 3.020649,-0.305671 l -2.23243,-2.428196 0.654274,-2.163739 a 12.036229,12.036229 0 0 1 3.673205,-0.61306 5.495211,5.495211 0 0 1 2.131111,0.358906 q 0.846606,0.355472 0.970248,1.13167 a 3.7127019,3.7127019 0 0 1 0.0395,0.649122 q 0,1.940496 -1.858068,3.388141 h 2.878117 q 0.999441,0 1.58159,-0.326278 a 2.3251612,2.3251612 0 0 0 0.877517,-0.815696 9.9343111,9.9343111 0 0 0 0.642253,-1.348043 l 0.171725,-0.386382 0.858627,-0.08243 a 6.2370645,6.2370645 0 0 0 -0.326279,1.734426 c 0,0.449921 0.109905,0.765895 0.326279,0.949641 0.216373,0.183747 0.544369,0.274761 0.980551,0.274761 0.54437,0 0.965097,-0.111621 1.265616,-0.343451 a 1.8752408,1.8752408 0 0 0 0.642253,-0.846606 11.995015,11.995015 0 0 0 0.41901,-1.530072 l 0.815695,-0.06182 a 5.4093483,5.4093483 0 0 0 -0.08243,0.939338 q 0,1.835744 1.469969,1.835744 h 0.02061 a 4.2364642,4.2364642 0 0 0 1.373803,-0.163139 1.7722055,1.7722055 0 0 0 0.592452,-0.305671 9.1186157,9.1186157 0 0 0 -0.491134,-1.373803 q -0.365775,-0.858627 -0.774482,-1.612501 l 1.061263,-1.30683 h 0.46881 a 7.3343894,7.3343894 0 0 1 0.551238,1.643412 9.1581126,9.1581126 0 0 1 0.224961,2.029793 6.9033588,6.9033588 0 0 1 -0.343451,2.23243 1.9817105,1.9817105 0 0 1 -0.970248,0.686901 4.6709293,4.6709293 0 0 1 -1.682909,0.264457 h -0.04121 a 2.1311115,2.1311115 0 0 1 -1.408147,-0.571845 1.8048334,1.8048334 0 0 1 -0.63195,-1.346327 q -0.367492,1.123084 -1.020048,1.519769 a 2.7269985,2.7269985 0 0 1 -1.449362,0.398403 h -0.04121 a 2.1946499,2.1946499 0 0 1 -1.51977,-0.551238 2.0109038,2.0109038 0 0 1 -0.623363,-1.373803 q -0.365775,1.040656 -1.16258,1.480273 a 3.5512801,3.5512801 0 0 1 -1.693212,0.436182 h -1.53179 c -0.611342,0 -1.085304,-0.01717 -1.418451,-0.05152 a 2.981152,2.981152 0 0 1 -0.947924,-0.254153 4.0647389,4.0647389 0 0 1 -0.980552,-0.673164 12.693937,12.693937 0 0 1 -2.287382,0.738419 z m 2.490017,-2.603356 a 7.3000444,7.3000444 0 0 0 1.88211,-0.899841 c 0.463658,-0.333147 0.686901,-0.657708 0.686901,-0.970248 a 0.60447321,0.60447321 0 0 0 -0.101318,-0.326278 q -0.34345,-0.571845 -1.837461,-0.571845 a 12.934353,12.934353 0 0 0 -2.775081,0.34345 27.450296,27.450296 0 0 0 2.150001,2.431631 z m -8.42828,-0.46881 -0.04121,-0.326278 -0.315974,-2.768213 a 21.943064,21.943064 0 0 0 -3.590777,1.897565 q 0.0395,0.712661 0.540934,0.999442 c 0.333148,0.190615 0.892972,0.286781 1.682909,0.286781 0.552955,-0.0052 1.129953,-0.02748 1.729274,-0.08243 z"
     class="cls-2"
     id="text" />
  <polygon
     transform="matrix(0.17172534,0,0,0.17172534,0.00343451,0)"
     id="polygon8"
     points="482.65,129.58 469.93,141.97 482.65,154.85 495.21,141.97 "
     class="cls-2" />
  <polygon
     transform="matrix(0.17172534,0,0,0.17172534,0.00343451,0)"
     id="polygon10"
     points="868.44,59.35 865.3,57.54 812.43,79.68 810.61,92.07 867.29,67.78 "
     class="cls-2" />
  <path
     style="stroke-width:0.171725"
     id="path12"
     d="m 116.86253,28.465193 a 15.311032,15.311032 0 0 0 0.15627,-2.57588 7.9611869,7.9611869 0 0 0 -1.09217,-3.674923 12.271493,12.271493 0 0 0 -2.32688,-2.950241 Q 112.2809,18.062072 111.345,17.632758 l -1.22097,0.396686 -1.56099,2.950241 a 26.076493,26.076493 0 0 1 4.32748,2.936504 q 2.23243,1.832309 2.59649,3.079035 -0.65427,0.824282 -4.12141,0.822564 -2.18434,0 -3.0361,-0.283346 c -0.5667,-0.188898 -0.92732,-0.501438 -1.07844,-0.935904 l -1.16258,0.226678 q -0.14081,2.127677 1.00631,3.68866 1.14713,1.560984 4.1008,1.560984 3.40532,0 5.10712,-1.476838 a 8.9297179,8.9297179 0 0 0 0.55982,-2.132829 z"
     class="cls-2" />
  <path
     style="stroke-width:0.171725"
     id="path14"
     d="m 150.1721,12.590902 a 0.41729258,0.41729258 0 0 0 -0.38295,-0.212939 1.2913746,1.2913746 0 0 0 -0.42588,0.113338 l -10.32756,4.483749 -0.56841,3.688661 a 31.554532,31.554532 0 0 1 3.61825,2.993172 q 1.8014,1.717254 2.17061,3.077318 -0.45336,0.515177 -2.31314,0.709226 a 32.45609,32.45609 0 0 1 -3.92908,0.171726 h -11.34761 a 2.8901375,2.8901375 0 0 1 -1.24844,-0.21294 1.5833077,1.5833077 0 0 1 -0.6869,-0.686901 13.566302,13.566302 0 0 1 -0.68691,-1.631391 11.981277,11.981277 0 0 0 -0.56841,-1.447645 l -0.87923,-0.02748 -2.18435,2.354355 q 0.87752,1.760184 1.75847,3.760785 0.88095,2.0006 1.33431,3.276519 -0.36921,0.686902 -1.63139,1.488859 a 13.839345,13.839345 0 0 1 -3.10652,1.418451 17.828525,17.828525 0 0 1 -3.85866,0.808827 l -0.36921,0.765895 q 3.14772,2.100201 3.85867,2.326878 0.90671,-0.02919 2.44021,-0.666294 a 9.5857087,9.5857087 0 0 0 2.82317,-1.830592 4.9233656,4.9233656 0 0 0 1.57472,-2.836903 7.1489261,7.1489261 0 0 0 0.11334,-1.418451 14.940105,14.940105 0 0 0 -0.0859,-1.53179 3.7573505,3.7573505 0 0 0 1.36179,0.279912 v 0 h 11.29266 a 19.997416,19.997416 0 0 0 4.72416,-0.496286 q 2.02808,-0.496287 2.85064,-1.603915 a 5.7734061,5.7734061 0 0 0 0.48255,-2.383548 9.1993267,9.1993267 0 0 0 -1.10591,-4.241616 17.488509,17.488509 0 0 0 -2.61195,-3.786544 l 7.32066,-2.91933 0.62508,-3.291975 a 0.59245244,0.59245244 0 0 0 -0.0309,-0.491135 z"
     class="cls-2" />
  <path
     style="stroke-width:0.171725"
     id="path16"
     d="m 90.008122,25.671222 a 15.680241,15.680241 0 0 0 -0.795089,-2.029794 l -0.90671,-0.02748 -2.186063,2.354354 q 2.498604,4.569612 3.235305,8.029878 -2.268491,1.617652 -6.724764,1.617652 -3.036104,0 -4.354955,-1.148842 -1.318851,-1.148843 -1.318851,-3.305713 0,-1.617653 0.736702,-4.05787 l -1.248443,0.171725 q -1.190057,2.919331 -1.191774,5.618854 0,3.091056 1.773923,5.007511 1.773923,1.916454 5.603398,1.914737 2.524362,0 4.293133,-0.722964 1.768771,-0.722963 2.747606,-1.830592 a 5.9039173,5.9039173 0 0 0 1.327437,-2.328595 11.234272,11.234272 0 0 0 0.226677,-2.404155 18.238949,18.238949 0 0 0 -0.365775,-3.578756 27.117149,27.117149 0 0 0 -0.851757,-3.279954 z"
     class="cls-2" />
  <path
     style="stroke-width:0.171725"
     id="path18"
     d="m 101.52746,22.152569 q -1.1643,-1.545528 -2.809429,-1.602197 a 3.5718871,3.5718871 0 0 0 -2.739019,1.092173 6.7745648,6.7745648 0 0 0 -1.603915,2.766495 10.633233,10.633233 0 0 0 -0.515176,3.149443 q 0,2.270209 1.178036,3.360665 1.178036,1.090456 3.503197,1.093891 2.325166,0 3.434506,-0.652557 -0.0567,1.076718 -0.14081,1.645129 -0.37093,0.709226 -1.76019,1.53179 a 16.753525,16.753525 0 0 1 -3.285105,1.454514 14.816463,14.816463 0 0 1 -3.661184,0.736701 l -0.367492,0.765896 q 3.147725,2.1002 3.801999,2.326878 0.877516,-0.02919 2.404155,-0.666294 a 9.8364277,9.8364277 0 0 0 2.823167,-1.830593 5.5329906,5.5329906 0 0 0 1.7018,-2.836902 15.036271,15.036271 0 0 0 0.36921,-3.546129 20.328846,20.328846 0 0 0 -0.58215,-4.866696 q -0.58902,-2.374961 -1.7516,-3.922207 z m -3.091059,5.666937 q -2.721846,0 -2.950241,-1.361782 a 2.6978051,2.6978051 0 0 1 0.858627,-1.504314 2.4281964,2.4281964 0 0 1 1.703515,-0.623363 q 0.963379,0 1.901,0.738419 0.937618,0.738419 1.502598,2.211822 -0.97368,0.534066 -3.017216,0.532349 z"
     class="cls-2" />
</svg>
